<svg xmlns="http://www.w3.org/2000/svg" viewBox="0 0 1080 720" role="img" aria-labelledby="title desc">
  <title id="title">Beauty Reel performance</title><desc id="desc">Mock analytics showing watch time, saves, and shares.</desc>
  <rect width="1080" height="720" fill="#f6f1ef"/><rect x="44" y="38" width="992" height="644" rx="28" fill="#fff" stroke="#eadfdf" stroke-width="2"/>
  <text x="86" y="102" fill="#171315" font-family="Arial" font-size="25" font-weight="700">Content performance</text><text x="86" y="137" fill="#81787b" font-family="Arial" font-size="15">Editorial Reel series</text>
  <rect x="86" y="178" width="432" height="176" rx="18" fill="#fbf7f7"/><text x="118" y="220" fill="#81787b" font-family="Arial" font-size="15">Average watch time</text><text x="118" y="286" fill="#171315" font-family="Arial" font-size="48" font-weight="700">12.4 sec</text><text x="118" y="326" fill="#e6002d" font-family="Arial" font-size="18" font-weight="700">+61%</text>
  <rect x="538" y="178" width="456" height="176" rx="18" fill="#fbf7f7"/><text x="570" y="220" fill="#81787b" font-family="Arial" font-size="15">Saves + shares</text><text x="570" y="286" fill="#171315" font-family="Arial" font-size="48" font-weight="700">4.8x</text><text x="570" y="326" fill="#e6002d" font-family="Arial" font-size="18" font-weight="700">Above baseline</text>
  <text x="86" y="415" fill="#171315" font-family="Arial" font-size="18" font-weight="700">Audience retention</text><g fill="#eee7e7"><rect x="86" y="448" width="908" height="2"/><rect x="86" y="514" width="908" height="2"/><rect x="86" y="580" width="908" height="2"/></g>
  <path d="M92 470 C190 474 255 490 332 502 S470 526 552 544 S695 566 770 576 S902 590 988 596" fill="none" stroke="#e6002d" stroke-width="7" stroke-linecap="round"/><path d="M92 470 C190 474 255 490 332 502 S470 526 552 544 S695 566 770 576 S902 590 988 596 L988 616 L92 616Z" fill="#e6002d" opacity=".08"/><text x="86" y="647" fill="#81787b" font-family="Arial" font-size="13">0:00</text><text x="965" y="647" fill="#81787b" font-family="Arial" font-size="13">0:18</text>
</svg>
