<svg xmlns="http://www.w3.org/2000/svg" viewBox="0 0 1080 720" role="img" aria-labelledby="title desc">
  <title id="title">Cafe Reel insights</title><desc id="desc">Mock analytics showing local views and audience discovery.</desc>
  <rect width="1080" height="720" fill="#f5f1e8"/><rect x="44" y="38" width="992" height="644" rx="28" fill="#fff" stroke="#e4ddd4" stroke-width="2"/>
  <text x="86" y="102" fill="#171315" font-family="Arial" font-size="25" font-weight="700">Reel insights</text><text x="86" y="137" fill="#81787b" font-family="Arial" font-size="15">Opening-week campaign</text>
  <text x="86" y="210" fill="#81787b" font-family="Arial" font-size="15">Views</text><text x="86" y="283" fill="#171315" font-family="Arial" font-size="62" font-weight="700">3,412</text>
  <circle cx="775" cy="276" r="116" fill="none" stroke="#eee8e3" stroke-width="34"/><circle cx="775" cy="276" r="116" fill="none" stroke="#e6002d" stroke-width="34" stroke-dasharray="496 730" stroke-linecap="round" transform="rotate(-90 775 276)"/><text x="775" y="270" fill="#171315" text-anchor="middle" font-family="Arial" font-size="35" font-weight="700">68%</text><text x="775" y="302" fill="#81787b" text-anchor="middle" font-family="Arial" font-size="14">Non-followers</text>
  <rect x="86" y="380" width="908" height="1" fill="#e9e3df"/><text x="86" y="430" fill="#171315" font-family="Arial" font-size="18" font-weight="700">Interactions</text>
  <g font-family="Arial"><rect x="86" y="465" width="276" height="142" rx="18" fill="#faf7f5"/><text x="114" y="505" fill="#81787b" font-size="14">Likes</text><text x="114" y="566" fill="#171315" font-size="38" font-weight="700">286</text><rect x="384" y="465" width="276" height="142" rx="18" fill="#faf7f5"/><text x="412" y="505" fill="#81787b" font-size="14">Saves</text><text x="412" y="566" fill="#171315" font-size="38" font-weight="700">94</text><rect x="682" y="465" width="312" height="142" rx="18" fill="#faf7f5"/><text x="710" y="505" fill="#81787b" font-size="14">Shares</text><text x="710" y="566" fill="#171315" font-size="38" font-weight="700">71</text></g>
</svg>
